<svg xmlns="http://www.w3.org/2000/svg" xmlns:xlink="http://www.w3.org/1999/xlink" width="1080" zoomAndPan="magnify" viewBox="0 0 810 809.999993" height="1080" preserveAspectRatio="xMidYMid meet" version="1.0"><defs><g/><clipPath id="a6586c7d12"><path d="M 225 159 L 580 159 L 580 445.972656 L 225 445.972656 Z M 225 159 " clip-rule="nonzero"/></clipPath></defs><g clip-path="url(#a6586c7d12)"><path fill="#ff3230" d="M 563.839844 273.066406 C 546.589844 242.613281 523.027344 216.089844 495.261719 194.90625 C 467.867188 174.035156 432.253906 155.8125 396.160156 160.703125 C 377.867188 163.058594 359.675781 171.089844 347.003906 184.972656 C 333.164062 199.050781 329.023438 219.9375 323.1875 239.1875 C 315.070312 245.019531 305.375 249.050781 296.042969 252.503906 C 294.253906 253.167969 292.449219 253.828125 290.660156 254.476562 C 277.105469 259.410156 263.082031 264.527344 251.3125 274.011719 C 233.273438 288.609375 223.210938 312.921875 225.679688 335.949219 C 228.144531 359.019531 243.140625 380.652344 263.871094 391.066406 C 273.480469 395.898438 284.320312 398.351562 295.199219 398.351562 C 301.1875 398.351562 307.191406 397.550781 313.011719 396.070312 L 322.566406 445.789062 L 329.796875 443.957031 C 381.023438 431.003906 432.957031 431.003906 484.183594 443.957031 L 491.414062 445.789062 L 499.855469 401.863281 C 522.179688 402.792969 544.6875 393.660156 559.597656 376.746094 C 586.824219 346.222656 583.273438 306.410156 563.796875 273.050781 Z M 480.410156 428.554688 C 431.660156 417.363281 382.363281 417.363281 333.617188 428.554688 L 323.316406 374.945312 C 323.46875 374.972656 323.625 375.015625 323.78125 375.058594 C 343.863281 379.652344 364.269531 371.125 378.488281 357.414062 C 396.511719 355.917969 415.976562 355.863281 436.480469 357.257812 C 452.996094 365.191406 470.570312 372.941406 489.5 372.335938 C 490.089844 372.335938 490.667969 372.265625 491.261719 372.238281 L 480.4375 428.554688 Z M 560.90625 339.894531 C 555.214844 366.96875 529.960938 386.628906 502.660156 387.488281 L 506.128906 369.488281 C 523.574219 363.839844 538.765625 350.195312 543.757812 333.144531 C 524.96875 354.550781 496.644531 363.9375 470.246094 353.988281 C 456.902344 349.578125 443.964844 341.785156 430.757812 336.246094 C 421.710938 332.636719 412.070312 330.480469 402.347656 330.058594 C 420.484375 309.300781 443.5 294.824219 470.191406 285.707031 C 440.863281 286.214844 411.351562 300.109375 390.367188 320.925781 C 383.222656 327.789062 376.769531 334.835938 370.1875 340.992188 C 343.734375 368.628906 305.191406 365.585938 284.164062 331.296875 C 284.699219 346.6875 294.464844 360.835938 307.839844 368.871094 L 310.40625 382.242188 C 297.015625 385.894531 282.390625 384.582031 270.242188 378.46875 C 253.667969 370.152344 241.6875 352.859375 239.730469 334.441406 C 237.769531 316.035156 245.804688 296.617188 260.207031 284.945312 C 270.140625 276.941406 282.472656 272.445312 295.523438 267.695312 C 297.355469 267.035156 299.171875 266.359375 300.992188 265.695312 C 305.542969 264.003906 310.417969 262.085938 315.28125 259.832031 C 309.898438 270.207031 302.21875 278.730469 289.574219 283.410156 C 308.164062 285.03125 323.214844 269.023438 331.007812 253.644531 C 342.832031 229.773438 344.46875 199.769531 369.523438 185.886719 C 407.675781 163.410156 452.773438 183.109375 484.792969 208.605469 C 519.347656 235.367188 571.800781 293.640625 560.949219 339.851562 Z M 560.90625 339.894531 " fill-opacity="1" fill-rule="nonzero"/></g><g fill="#000000" fill-opacity="1"><g transform="translate(95.56256, 364.595285)"><g><path d="M 13.203125 -24.328125 C 11.046875 -24.328125 9.1875 -25.085938 7.625 -26.609375 C 6.070312 -28.140625 5.296875 -30.191406 5.296875 -32.765625 C 5.296875 -35.210938 6.070312 -37.1875 7.625 -38.6875 C 9.1875 -40.1875 11.070312 -40.9375 13.28125 -40.9375 L 33.9375 -40.9375 C 36.207031 -40.9375 38.0625 -40.171875 39.5 -38.640625 C 40.9375 -37.117188 41.65625 -35.160156 41.65625 -32.765625 C 41.65625 -30.367188 40.9375 -28.363281 39.5 -26.75 C 38.0625 -25.132812 36.207031 -24.328125 33.9375 -24.328125 Z M 13.203125 -24.328125 "/></g></g></g><g fill="#ff3230" fill-opacity="1"><g transform="translate(667.566714, 364.595285)"><g><path d="M 13.203125 -24.328125 C 11.046875 -24.328125 9.1875 -25.085938 7.625 -26.609375 C 6.070312 -28.140625 5.296875 -30.191406 5.296875 -32.765625 C 5.296875 -35.210938 6.070312 -37.1875 7.625 -38.6875 C 9.1875 -40.1875 11.070312 -40.9375 13.28125 -40.9375 L 33.9375 -40.9375 C 36.207031 -40.9375 38.0625 -40.171875 39.5 -38.640625 C 40.9375 -37.117188 41.65625 -35.160156 41.65625 -32.765625 C 41.65625 -30.367188 40.9375 -28.363281 39.5 -26.75 C 38.0625 -25.132812 36.207031 -24.328125 33.9375 -24.328125 Z M 13.203125 -24.328125 "/></g></g></g><g fill="#ff3230" fill-opacity="1"><g transform="translate(39.779298, 615.751243)"><g><path d="M 8.84375 -80.59375 C 8.15625 -81.019531 7.253906 -81.363281 6.140625 -81.625 C 5.035156 -81.882812 4.097656 -82.015625 3.328125 -82.015625 C 2.222656 -82.015625 1.347656 -82.332031 0.703125 -82.96875 C 0.0664062 -83.613281 -0.25 -84.363281 -0.25 -85.21875 C -0.25 -85.976562 0.0664062 -86.613281 0.703125 -87.125 C 1.347656 -87.644531 2.097656 -87.90625 2.953125 -87.90625 L 17.8125 -87.90625 C 19.945312 -87.90625 21.484375 -87.265625 22.421875 -85.984375 C 23.359375 -84.703125 23.828125 -83.332031 23.828125 -81.875 L 23.828125 -31.140625 C 23.828125 -22.941406 25.28125 -16.40625 28.1875 -11.53125 C 31.09375 -6.664062 36.601562 -4.234375 44.71875 -4.234375 C 48.90625 -4.234375 52.40625 -4.875 55.21875 -6.15625 C 58.039062 -7.4375 60.304688 -9.269531 62.015625 -11.65625 C 63.640625 -14.050781 64.816406 -16.867188 65.546875 -20.109375 C 66.273438 -23.359375 66.640625 -26.992188 66.640625 -31.015625 L 66.640625 -87.90625 L 76.5 -87.90625 L 76.5 -31.140625 C 76.5 -27.296875 76.15625 -23.300781 75.46875 -19.15625 C 74.789062 -15.007812 73.34375 -11.226562 71.125 -7.8125 C 68.894531 -4.3125 65.6875 -1.472656 61.5 0.703125 C 57.320312 2.878906 51.6875 3.96875 44.59375 3.96875 C 38.1875 3.96875 32.890625 3.050781 28.703125 1.21875 C 24.515625 -0.613281 21.179688 -3.070312 18.703125 -6.15625 C 16.234375 -9.226562 14.523438 -12.789062 13.578125 -16.84375 C 12.640625 -20.90625 12.171875 -25.15625 12.171875 -29.59375 L 12.171875 -71.125 C 12.171875 -73.257812 11.976562 -75.113281 11.59375 -76.6875 C 11.207031 -78.269531 10.289062 -79.570312 8.84375 -80.59375 Z M 8.84375 -80.59375 "/></g></g></g><g fill="#ff3230" fill-opacity="1"><g transform="translate(124.35492, 615.751243)"><g><path d="M 23.703125 2.6875 L 12.171875 2.6875 L 12.171875 -71.25 C 12.171875 -74.664062 11.550781 -77.269531 10.3125 -79.0625 C 9.070312 -80.851562 6.914062 -81.835938 3.84375 -82.015625 C 2.394531 -82.015625 1.476562 -82.351562 1.09375 -83.03125 C 0.707031 -83.71875 0.515625 -84.445312 0.515625 -85.21875 C 0.429688 -85.894531 0.6875 -86.507812 1.28125 -87.0625 C 1.875 -87.625 2.554688 -87.90625 3.328125 -87.90625 L 65.359375 -87.90625 L 66.125 -71.5 C 66.125 -70.644531 65.820312 -69.984375 65.21875 -69.515625 C 64.625 -69.046875 63.984375 -68.769531 63.296875 -68.6875 C 62.617188 -68.601562 61.976562 -68.773438 61.375 -69.203125 C 60.78125 -69.628906 60.484375 -70.351562 60.484375 -71.375 C 60.484375 -71.375 60.269531 -72.207031 59.84375 -73.875 C 59.414062 -75.539062 58.816406 -76.882812 58.046875 -77.90625 C 57.453125 -78.675781 56.488281 -79.316406 55.15625 -79.828125 C 53.832031 -80.335938 51.765625 -80.59375 48.953125 -80.59375 L 31.015625 -80.59375 C 27.847656 -80.59375 25.835938 -79.867188 24.984375 -78.421875 C 24.128906 -76.972656 23.703125 -75.007812 23.703125 -72.53125 L 23.703125 -48.5625 L 43.3125 -48.5625 C 44.507812 -48.5625 45.617188 -48.644531 46.640625 -48.8125 C 47.671875 -48.988281 48.613281 -49.207031 49.46875 -49.46875 C 51.34375 -49.976562 52.769531 -50.851562 53.75 -52.09375 C 54.738281 -53.332031 55.234375 -55.359375 55.234375 -58.171875 C 55.234375 -58.679688 55.507812 -59.085938 56.0625 -59.390625 C 56.613281 -59.691406 57.234375 -59.84375 57.921875 -59.84375 C 58.515625 -59.84375 59.109375 -59.710938 59.703125 -59.453125 C 60.304688 -59.203125 60.609375 -58.816406 60.609375 -58.296875 L 60.609375 -31.265625 C 60.609375 -30.671875 60.304688 -30.242188 59.703125 -29.984375 C 59.109375 -29.722656 58.472656 -29.640625 57.796875 -29.734375 C 57.109375 -29.734375 56.484375 -29.921875 55.921875 -30.296875 C 55.367188 -30.679688 55.09375 -31.257812 55.09375 -32.03125 C 55.09375 -32.03125 54.960938 -32.796875 54.703125 -34.328125 C 54.453125 -35.867188 53.773438 -37.328125 52.671875 -38.703125 C 51.898438 -39.472656 50.851562 -40.046875 49.53125 -40.421875 C 48.207031 -40.804688 46.132812 -41 43.3125 -41 L 23.703125 -41 Z M 23.703125 2.6875 "/></g></g></g><g fill="#ff3230" fill-opacity="1"><g transform="translate(193.553157, 615.751243)"><g><path d="M 4.234375 -82.015625 C 3.203125 -82.015625 2.382812 -82.3125 1.78125 -82.90625 C 1.1875 -83.5 0.890625 -84.222656 0.890625 -85.078125 C 0.890625 -85.765625 1.144531 -86.40625 1.65625 -87 C 2.175781 -87.601562 2.820312 -87.90625 3.59375 -87.90625 L 28.828125 -87.90625 L 53.3125 -11.40625 L 79.1875 -87.90625 L 96.875 -87.90625 L 96.875 2.6875 L 85.59375 2.6875 L 85.59375 -77.265625 L 60.484375 -2.5625 C 60.054688 -1.28125 59.394531 -0.0859375 58.5 1.015625 C 57.601562 2.128906 56.210938 2.6875 54.328125 2.6875 L 46.90625 2.6875 L 20.890625 -77.265625 L 20.890625 2.6875 L 11.78125 2.6875 L 11.78125 -70.984375 C 11.78125 -74.148438 11.289062 -76.78125 10.3125 -78.875 C 9.332031 -80.96875 7.304688 -82.015625 4.234375 -82.015625 Z M 4.234375 -82.015625 "/></g></g></g><g fill="#ff3230" fill-opacity="1"><g transform="translate(299.913408, 615.751243)"><g><path d="M 77.65625 -37.921875 L 77.65625 -2.6875 C 73.039062 -0.46875 68.53125 1.191406 64.125 2.296875 C 59.726562 3.410156 55.179688 3.96875 50.484375 3.96875 C 43.304688 4.144531 36.878906 3.054688 31.203125 0.703125 C 25.523438 -1.640625 20.71875 -4.90625 16.78125 -9.09375 C 12.769531 -13.28125 9.738281 -18.253906 7.6875 -24.015625 C 5.632812 -29.785156 4.609375 -36.085938 4.609375 -42.921875 C 4.609375 -49.671875 5.566406 -55.863281 7.484375 -61.5 C 9.410156 -67.144531 12.171875 -72.015625 15.765625 -76.109375 C 19.429688 -80.210938 23.890625 -83.414062 29.140625 -85.71875 C 34.398438 -88.03125 40.363281 -89.1875 47.03125 -89.1875 C 51.726562 -89.1875 55.976562 -88.546875 59.78125 -87.265625 C 63.582031 -85.984375 66.847656 -84.359375 69.578125 -82.390625 C 72.222656 -80.429688 74.269531 -78.234375 75.71875 -75.796875 C 77.175781 -73.359375 77.90625 -70.945312 77.90625 -68.5625 L 64.84375 -68.5625 C 64.84375 -69.84375 64.457031 -71.207031 63.6875 -72.65625 C 62.914062 -74.101562 61.757812 -75.46875 60.21875 -76.75 C 58.6875 -77.945312 56.804688 -78.972656 54.578125 -79.828125 C 52.359375 -80.679688 49.800781 -81.109375 46.90625 -81.109375 C 44.164062 -81.109375 41.085938 -80.53125 37.671875 -79.375 C 34.253906 -78.226562 31.050781 -76.242188 28.0625 -73.421875 C 24.988281 -70.691406 22.445312 -67 20.4375 -62.34375 C 18.425781 -57.6875 17.421875 -51.851562 17.421875 -44.84375 C 17.421875 -38.945312 18.144531 -33.5 19.59375 -28.5 C 21.050781 -23.507812 23.316406 -19.175781 26.390625 -15.5 C 29.472656 -11.832031 33.316406 -8.992188 37.921875 -6.984375 C 42.535156 -4.972656 48.003906 -3.96875 54.328125 -3.96875 C 55.785156 -3.96875 57.535156 -4.140625 59.578125 -4.484375 C 61.628906 -4.828125 63.769531 -5.296875 66 -5.890625 L 66 -26.78125 C 66 -29 65.804688 -30.921875 65.421875 -32.546875 C 65.035156 -34.171875 64.113281 -35.492188 62.65625 -36.515625 C 61.976562 -36.941406 60.675781 -37.28125 58.75 -37.53125 C 56.832031 -37.789062 55.445312 -37.921875 54.59375 -37.921875 C 53.476562 -37.921875 52.597656 -38.242188 51.953125 -38.890625 C 51.316406 -39.535156 51 -40.285156 51 -41.140625 C 51 -41.898438 51.296875 -42.578125 51.890625 -43.171875 C 52.492188 -43.773438 53.222656 -44.078125 54.078125 -44.078125 L 71.625 -44.078125 C 73.757812 -44.078125 75.296875 -43.414062 76.234375 -42.09375 C 77.179688 -40.769531 77.65625 -39.378906 77.65625 -37.921875 Z M 77.65625 -37.921875 "/></g></g></g><g fill="#000000" fill-opacity="1"><g transform="translate(384.497339, 615.751243)"><g/></g></g><g fill="#000000" fill-opacity="1"><g transform="translate(426.785157, 615.751243)"><g><path d="M 23.703125 2.6875 L 12.171875 2.6875 L 12.171875 -71.25 C 12.171875 -74.664062 11.550781 -77.269531 10.3125 -79.0625 C 9.070312 -80.851562 6.914062 -81.835938 3.84375 -82.015625 C 2.394531 -82.015625 1.476562 -82.351562 1.09375 -83.03125 C 0.707031 -83.71875 0.515625 -84.445312 0.515625 -85.21875 C 0.429688 -85.894531 0.6875 -86.507812 1.28125 -87.0625 C 1.875 -87.625 2.554688 -87.90625 3.328125 -87.90625 L 65.359375 -87.90625 L 66.125 -71.5 C 66.125 -70.644531 65.820312 -69.984375 65.21875 -69.515625 C 64.625 -69.046875 63.984375 -68.769531 63.296875 -68.6875 C 62.617188 -68.601562 61.976562 -68.773438 61.375 -69.203125 C 60.78125 -69.628906 60.484375 -70.351562 60.484375 -71.375 C 60.484375 -71.375 60.269531 -72.207031 59.84375 -73.875 C 59.414062 -75.539062 58.816406 -76.882812 58.046875 -77.90625 C 57.453125 -78.675781 56.488281 -79.316406 55.15625 -79.828125 C 53.832031 -80.335938 51.765625 -80.59375 48.953125 -80.59375 L 31.015625 -80.59375 C 27.847656 -80.59375 25.835938 -79.867188 24.984375 -78.421875 C 24.128906 -76.972656 23.703125 -75.007812 23.703125 -72.53125 L 23.703125 -48.5625 L 43.3125 -48.5625 C 44.507812 -48.5625 45.617188 -48.644531 46.640625 -48.8125 C 47.671875 -48.988281 48.613281 -49.207031 49.46875 -49.46875 C 51.34375 -49.976562 52.769531 -50.851562 53.75 -52.09375 C 54.738281 -53.332031 55.234375 -55.359375 55.234375 -58.171875 C 55.234375 -58.679688 55.507812 -59.085938 56.0625 -59.390625 C 56.613281 -59.691406 57.234375 -59.84375 57.921875 -59.84375 C 58.515625 -59.84375 59.109375 -59.710938 59.703125 -59.453125 C 60.304688 -59.203125 60.609375 -58.816406 60.609375 -58.296875 L 60.609375 -31.265625 C 60.609375 -30.671875 60.304688 -30.242188 59.703125 -29.984375 C 59.109375 -29.722656 58.472656 -29.640625 57.796875 -29.734375 C 57.109375 -29.734375 56.484375 -29.921875 55.921875 -30.296875 C 55.367188 -30.679688 55.09375 -31.257812 55.09375 -32.03125 C 55.09375 -32.03125 54.960938 -32.796875 54.703125 -34.328125 C 54.453125 -35.867188 53.773438 -37.328125 52.671875 -38.703125 C 51.898438 -39.472656 50.851562 -40.046875 49.53125 -40.421875 C 48.207031 -40.804688 46.132812 -41 43.3125 -41 L 23.703125 -41 Z M 23.703125 2.6875 "/></g></g></g><g fill="#000000" fill-opacity="1"><g transform="translate(495.983394, 615.751243)"><g><path d="M 47.546875 3.96875 C 40.878906 3.96875 34.960938 2.859375 29.796875 0.640625 C 24.628906 -1.578125 20.25 -4.738281 16.65625 -8.84375 C 13.070312 -12.851562 10.335938 -17.71875 8.453125 -23.4375 C 6.578125 -29.164062 5.640625 -35.535156 5.640625 -42.546875 C 5.640625 -49.546875 6.640625 -55.90625 8.640625 -61.625 C 10.648438 -67.351562 13.453125 -72.269531 17.046875 -76.375 C 20.710938 -80.46875 25.109375 -83.625 30.234375 -85.84375 C 35.359375 -88.070312 41.082031 -89.1875 47.40625 -89.1875 C 53.644531 -89.1875 59.347656 -88.097656 64.515625 -85.921875 C 69.679688 -83.742188 74.0625 -80.601562 77.65625 -76.5 C 81.320312 -72.488281 84.160156 -67.617188 86.171875 -61.890625 C 88.179688 -56.171875 89.1875 -49.765625 89.1875 -42.671875 C 89.1875 -35.578125 88.222656 -29.164062 86.296875 -23.4375 C 84.378906 -17.71875 81.625 -12.8125 78.03125 -8.71875 C 74.445312 -4.613281 70.070312 -1.472656 64.90625 0.703125 C 59.738281 2.878906 53.953125 3.96875 47.546875 3.96875 Z M 47.546875 -4.234375 C 52.835938 -4.234375 57.363281 -5.273438 61.125 -7.359375 C 64.882812 -9.453125 67.914062 -12.296875 70.21875 -15.890625 C 72.613281 -19.472656 74.363281 -23.570312 75.46875 -28.1875 C 76.582031 -32.800781 77.140625 -37.628906 77.140625 -42.671875 C 77.140625 -47.796875 76.582031 -52.6875 75.46875 -57.34375 C 74.363281 -62 72.613281 -66.117188 70.21875 -69.703125 C 67.832031 -73.210938 64.757812 -76.035156 61 -78.171875 C 57.238281 -80.304688 52.707031 -81.375 47.40625 -81.375 C 42.28125 -81.375 37.835938 -80.304688 34.078125 -78.171875 C 30.328125 -76.035156 27.253906 -73.171875 24.859375 -69.578125 C 22.378906 -65.992188 20.5625 -61.875 19.40625 -57.21875 C 18.257812 -52.5625 17.6875 -47.671875 17.6875 -42.546875 C 17.6875 -37.585938 18.21875 -32.800781 19.28125 -28.1875 C 20.351562 -23.570312 22.082031 -19.515625 24.46875 -16.015625 C 26.863281 -12.429688 29.960938 -9.570312 33.765625 -7.4375 C 37.566406 -5.300781 42.160156 -4.234375 47.546875 -4.234375 Z M 47.546875 -4.234375 "/></g></g></g><g fill="#000000" fill-opacity="1"><g transform="translate(590.81061, 615.751243)"><g><path d="M 47.546875 3.96875 C 40.878906 3.96875 34.960938 2.859375 29.796875 0.640625 C 24.628906 -1.578125 20.25 -4.738281 16.65625 -8.84375 C 13.070312 -12.851562 10.335938 -17.71875 8.453125 -23.4375 C 6.578125 -29.164062 5.640625 -35.535156 5.640625 -42.546875 C 5.640625 -49.546875 6.640625 -55.90625 8.640625 -61.625 C 10.648438 -67.351562 13.453125 -72.269531 17.046875 -76.375 C 20.710938 -80.46875 25.109375 -83.625 30.234375 -85.84375 C 35.359375 -88.070312 41.082031 -89.1875 47.40625 -89.1875 C 53.644531 -89.1875 59.347656 -88.097656 64.515625 -85.921875 C 69.679688 -83.742188 74.0625 -80.601562 77.65625 -76.5 C 81.320312 -72.488281 84.160156 -67.617188 86.171875 -61.890625 C 88.179688 -56.171875 89.1875 -49.765625 89.1875 -42.671875 C 89.1875 -35.578125 88.222656 -29.164062 86.296875 -23.4375 C 84.378906 -17.71875 81.625 -12.8125 78.03125 -8.71875 C 74.445312 -4.613281 70.070312 -1.472656 64.90625 0.703125 C 59.738281 2.878906 53.953125 3.96875 47.546875 3.96875 Z M 47.546875 -4.234375 C 52.835938 -4.234375 57.363281 -5.273438 61.125 -7.359375 C 64.882812 -9.453125 67.914062 -12.296875 70.21875 -15.890625 C 72.613281 -19.472656 74.363281 -23.570312 75.46875 -28.1875 C 76.582031 -32.800781 77.140625 -37.628906 77.140625 -42.671875 C 77.140625 -47.796875 76.582031 -52.6875 75.46875 -57.34375 C 74.363281 -62 72.613281 -66.117188 70.21875 -69.703125 C 67.832031 -73.210938 64.757812 -76.035156 61 -78.171875 C 57.238281 -80.304688 52.707031 -81.375 47.40625 -81.375 C 42.28125 -81.375 37.835938 -80.304688 34.078125 -78.171875 C 30.328125 -76.035156 27.253906 -73.171875 24.859375 -69.578125 C 22.378906 -65.992188 20.5625 -61.875 19.40625 -57.21875 C 18.257812 -52.5625 17.6875 -47.671875 17.6875 -42.546875 C 17.6875 -37.585938 18.21875 -32.800781 19.28125 -28.1875 C 20.351562 -23.570312 22.082031 -19.515625 24.46875 -16.015625 C 26.863281 -12.429688 29.960938 -9.570312 33.765625 -7.4375 C 37.566406 -5.300781 42.160156 -4.234375 47.546875 -4.234375 Z M 47.546875 -4.234375 "/></g></g></g><g fill="#000000" fill-opacity="1"><g transform="translate(685.637825, 615.751243)"><g><path d="M 23.703125 -71.125 L 23.703125 -14.21875 C 23.703125 -13.363281 23.703125 -12.59375 23.703125 -11.90625 C 23.703125 -11.226562 23.742188 -10.59375 23.828125 -10 C 23.921875 -8.375 24.414062 -7.195312 25.3125 -6.46875 C 26.207031 -5.738281 27.207031 -5.289062 28.3125 -5.125 C 29.507812 -4.863281 30.726562 -4.773438 31.96875 -4.859375 C 33.207031 -4.953125 34.296875 -5 35.234375 -5 C 39.503906 -5 43.753906 -5.703125 47.984375 -7.109375 C 52.210938 -8.515625 55.648438 -10.757812 58.296875 -13.84375 C 60.859375 -16.75 62.910156 -20.460938 64.453125 -24.984375 C 65.992188 -29.515625 66.765625 -35.238281 66.765625 -42.15625 C 66.765625 -47.625 66.316406 -52.664062 65.421875 -57.28125 C 64.523438 -61.894531 62.960938 -65.910156 60.734375 -69.328125 C 58.429688 -72.660156 55.378906 -75.285156 51.578125 -77.203125 C 47.773438 -79.128906 42.96875 -80.175781 37.15625 -80.34375 C 36.644531 -80.34375 35.894531 -80.320312 34.90625 -80.28125 C 33.925781 -80.238281 32.925781 -80.21875 31.90625 -80.21875 C 30.882812 -80.132812 29.945312 -80.066406 29.09375 -80.015625 C 28.238281 -79.972656 27.679688 -79.953125 27.421875 -79.953125 C 26.398438 -79.703125 25.628906 -79.363281 25.109375 -78.9375 C 24.597656 -78.507812 24.21875 -77.695312 23.96875 -76.5 C 23.789062 -76.15625 23.679688 -75.789062 23.640625 -75.40625 C 23.597656 -75.019531 23.578125 -74.613281 23.578125 -74.1875 C 23.578125 -73.675781 23.597656 -73.164062 23.640625 -72.65625 C 23.679688 -72.144531 23.703125 -71.632812 23.703125 -71.125 Z M 3.84375 -82.015625 C 2.726562 -82.097656 1.894531 -82.457031 1.34375 -83.09375 C 0.789062 -83.738281 0.515625 -84.445312 0.515625 -85.21875 C 0.429688 -85.894531 0.6875 -86.507812 1.28125 -87.0625 C 1.875 -87.625 2.554688 -87.90625 3.328125 -87.90625 L 26.140625 -87.90625 C 29.640625 -87.90625 33.65625 -87.796875 38.1875 -87.578125 C 42.71875 -87.367188 46.519531 -87.007812 49.59375 -86.5 C 53.863281 -85.8125 57.832031 -84.421875 61.5 -82.328125 C 65.175781 -80.234375 68.335938 -77.351562 70.984375 -73.6875 C 73.640625 -70.007812 75.710938 -65.5625 77.203125 -60.34375 C 78.703125 -55.132812 79.453125 -49.070312 79.453125 -42.15625 C 79.453125 -32.5 78.0625 -24.785156 75.28125 -19.015625 C 72.507812 -13.253906 68.816406 -8.753906 64.203125 -5.515625 C 59.835938 -2.429688 55.007812 -0.296875 49.71875 0.890625 C 44.425781 2.085938 38.101562 2.6875 30.75 2.6875 L 12.171875 2.6875 L 12.171875 -70.984375 C 12.171875 -74.828125 11.441406 -77.539062 9.984375 -79.125 C 8.535156 -80.707031 6.488281 -81.671875 3.84375 -82.015625 Z M 3.84375 -82.015625 "/></g></g></g></svg>